ISO-10303-21;
HEADER;
/* Generated by software containing ST-Developer
 * from STEP Tools, Inc. (www.steptools.com) 
 */

FILE_DESCRIPTION(
/* description */ (''),
/* implementation_level */ '2;1');

FILE_NAME(
/* name */ 'Cover11.step',
/* time_stamp */ '2026-09-30T12:29:46+05:30',
/* author */ (''),
/* organization */ (''),
/* preprocessor_version */ 'ST-DEVELOPER v20.2',
/* originating_system */ 'Autodesk Translation Framework v15.15.0.0',
/* authorisation */ '');

FILE_SCHEMA (('AUTOMOTIVE_DESIGN { 1 0 10303 214 3 1 1 }'));
ENDSEC;

DATA;
#10=MECHANICAL_DESIGN_GEOMETRIC_PRESENTATION_REPRESENTATION('',(#13),#704);
#11=SHAPE_REPRESENTATION_RELATIONSHIP('SRR','None',#711,#12);
#12=ADVANCED_BREP_SHAPE_REPRESENTATION('',(#14),#703);
#13=STYLED_ITEM('',(#720),#14);
#14=MANIFOLD_SOLID_BREP('Body1',#420);
#15=FACE_BOUND('',#58,.T.);
#16=FACE_BOUND('',#59,.T.);
#17=FACE_BOUND('',#60,.T.);
#18=FACE_BOUND('',#80,.T.);
#19=FACE_BOUND('',#81,.T.);
#20=FACE_BOUND('',#82,.T.);
#21=PLANE('',#437);
#22=PLANE('',#443);
#23=PLANE('',#447);
#24=PLANE('',#448);
#25=PLANE('',#449);
#26=PLANE('',#450);
#27=PLANE('',#451);
#28=PLANE('',#452);
#29=PLANE('',#455);
#30=PLANE('',#458);
#31=PLANE('',#461);
#32=PLANE('',#464);
#33=PLANE('',#467);
#34=PLANE('',#468);
#35=FACE_OUTER_BOUND('',#56,.T.);
#36=FACE_OUTER_BOUND('',#57,.T.);
#37=FACE_OUTER_BOUND('',#61,.T.);
#38=FACE_OUTER_BOUND('',#62,.T.);
#39=FACE_OUTER_BOUND('',#63,.T.);
#40=FACE_OUTER_BOUND('',#64,.T.);
#41=FACE_OUTER_BOUND('',#65,.T.);
#42=FACE_OUTER_BOUND('',#66,.T.);
#43=FACE_OUTER_BOUND('',#67,.T.);
#44=FACE_OUTER_BOUND('',#68,.T.);
#45=FACE_OUTER_BOUND('',#69,.T.);
#46=FACE_OUTER_BOUND('',#70,.T.);
#47=FACE_OUTER_BOUND('',#71,.T.);
#48=FACE_OUTER_BOUND('',#72,.T.);
#49=FACE_OUTER_BOUND('',#73,.T.);
#50=FACE_OUTER_BOUND('',#74,.T.);
#51=FACE_OUTER_BOUND('',#75,.T.);
#52=FACE_OUTER_BOUND('',#76,.T.);
#53=FACE_OUTER_BOUND('',#77,.T.);
#54=FACE_OUTER_BOUND('',#78,.T.);
#55=FACE_OUTER_BOUND('',#79,.T.);
#56=EDGE_LOOP('',(#278,#279,#280,#281));
#57=EDGE_LOOP('',(#282,#283,#284,#285));
#58=EDGE_LOOP('',(#286,#287,#288,#289,#290,#291,#292,#293));
#59=EDGE_LOOP('',(#294));
#60=EDGE_LOOP('',(#295,#296,#297,#298));
#61=EDGE_LOOP('',(#299,#300,#301,#302,#303,#304));
#62=EDGE_LOOP('',(#305,#306,#307,#308));
#63=EDGE_LOOP('',(#309,#310,#311,#312,#313,#314));
#64=EDGE_LOOP('',(#315,#316,#317,#318));
#65=EDGE_LOOP('',(#319,#320,#321,#322));
#66=EDGE_LOOP('',(#323,#324,#325,#326));
#67=EDGE_LOOP('',(#327,#328,#329,#330));
#68=EDGE_LOOP('',(#331,#332,#333,#334));
#69=EDGE_LOOP('',(#335,#336,#337,#338));
#70=EDGE_LOOP('',(#339,#340,#341,#342));
#71=EDGE_LOOP('',(#343,#344,#345,#346));
#72=EDGE_LOOP('',(#347,#348,#349,#350));
#73=EDGE_LOOP('',(#351,#352,#353,#354));
#74=EDGE_LOOP('',(#355,#356,#357,#358));
#75=EDGE_LOOP('',(#359,#360,#361,#362));
#76=EDGE_LOOP('',(#363,#364,#365,#366));
#77=EDGE_LOOP('',(#367,#368,#369,#370));
#78=EDGE_LOOP('',(#371,#372,#373,#374));
#79=EDGE_LOOP('',(#375,#376,#377,#378));
#80=EDGE_LOOP('',(#379,#380,#381,#382));
#81=EDGE_LOOP('',(#383));
#82=EDGE_LOOP('',(#384,#385,#386,#387,#388,#389,#390,#391));
#83=LINE('',#590,#126);
#84=LINE('',#593,#127);
#85=LINE('',#596,#128);
#86=LINE('',#598,#129);
#87=LINE('',#599,#130);
#88=LINE('',#604,#131);
#89=LINE('',#608,#132);
#90=LINE('',#612,#133);
#91=LINE('',#615,#134);
#92=LINE('',#620,#135);
#93=LINE('',#622,#136);
#94=LINE('',#624,#137);
#95=LINE('',#625,#138);
#96=LINE('',#628,#139);
#97=LINE('',#630,#140);
#98=LINE('',#632,#141);
#99=LINE('',#637,#142);
#100=LINE('',#640,#143);
#101=LINE('',#642,#144);
#102=LINE('',#643,#145);
#103=LINE('',#645,#146);
#104=LINE('',#649,#147);
#105=LINE('',#650,#148);
#106=LINE('',#651,#149);
#107=LINE('',#654,#150);
#108=LINE('',#655,#151);
#109=LINE('',#658,#152);
#110=LINE('',#659,#153);
#111=LINE('',#661,#154);
#112=LINE('',#664,#155);
#113=LINE('',#669,#156);
#114=LINE('',#670,#157);
#115=LINE('',#671,#158);
#116=LINE('',#675,#159);
#117=LINE('',#678,#160);
#118=LINE('',#679,#161);
#119=LINE('',#683,#162);
#120=LINE('',#686,#163);
#121=LINE('',#687,#164);
#122=LINE('',#691,#165);
#123=LINE('',#694,#166);
#124=LINE('',#695,#167);
#125=LINE('',#699,#168);
#126=VECTOR('',#475,10.);
#127=VECTOR('',#478,10.);
#128=VECTOR('',#481,10.);
#129=VECTOR('',#482,10.);
#130=VECTOR('',#483,10.);
#131=VECTOR('',#486,10.);
#132=VECTOR('',#489,10.);
#133=VECTOR('',#492,10.);
#134=VECTOR('',#495,10.);
#135=VECTOR('',#498,10.);
#136=VECTOR('',#499,10.);
#137=VECTOR('',#500,10.);
#138=VECTOR('',#501,10.);
#139=VECTOR('',#504,10.);
#140=VECTOR('',#505,10.);
#141=VECTOR('',#506,10.);
#142=VECTOR('',#513,10.);
#143=VECTOR('',#516,10.);
#144=VECTOR('',#517,10.);
#145=VECTOR('',#518,10.);
#146=VECTOR('',#521,10.);
#147=VECTOR('',#524,10.);
#148=VECTOR('',#525,10.);
#149=VECTOR('',#526,10.);
#150=VECTOR('',#529,10.);
#151=VECTOR('',#530,10.);
#152=VECTOR('',#533,10.);
#153=VECTOR('',#534,10.);
#154=VECTOR('',#537,10.);
#155=VECTOR('',#540,3.50000000000001);
#156=VECTOR('',#545,10.);
#157=VECTOR('',#546,10.);
#158=VECTOR('',#547,10.);
#159=VECTOR('',#552,10.);
#160=VECTOR('',#555,10.);
#161=VECTOR('',#556,10.);
#162=VECTOR('',#561,10.);
#163=VECTOR('',#564,10.);
#164=VECTOR('',#565,10.);
#165=VECTOR('',#570,10.);
#166=VECTOR('',#573,10.);
#167=VECTOR('',#574,10.);
#168=VECTOR('',#581,10.);
#169=CIRCLE('',#435,2.);
#170=CIRCLE('',#436,2.);
#171=CIRCLE('',#438,0.999999999999999);
#172=CIRCLE('',#439,0.999999999999996);
#173=CIRCLE('',#440,1.00000000000001);
#174=CIRCLE('',#441,0.999999999999996);
#175=CIRCLE('',#442,3.50000000000001);
#176=CIRCLE('',#444,2.);
#177=CIRCLE('',#446,2.);
#178=CIRCLE('',#454,3.50000000000001);
#179=CIRCLE('',#457,0.999999999999996);
#180=CIRCLE('',#460,1.00000000000001);
#181=CIRCLE('',#463,0.999999999999996);
#182=CIRCLE('',#466,0.999999999999999);
#183=VERTEX_POINT('',#586);
#184=VERTEX_POINT('',#587);
#185=VERTEX_POINT('',#589);
#186=VERTEX_POINT('',#591);
#187=VERTEX_POINT('',#595);
#188=VERTEX_POINT('',#597);
#189=VERTEX_POINT('',#600);
#190=VERTEX_POINT('',#601);
#191=VERTEX_POINT('',#603);
#192=VERTEX_POINT('',#605);
#193=VERTEX_POINT('',#607);
#194=VERTEX_POINT('',#609);
#195=VERTEX_POINT('',#611);
#196=VERTEX_POINT('',#613);
#197=VERTEX_POINT('',#616);
#198=VERTEX_POINT('',#618);
#199=VERTEX_POINT('',#619);
#200=VERTEX_POINT('',#621);
#201=VERTEX_POINT('',#623);
#202=VERTEX_POINT('',#627);
#203=VERTEX_POINT('',#629);
#204=VERTEX_POINT('',#631);
#205=VERTEX_POINT('',#635);
#206=VERTEX_POINT('',#639);
#207=VERTEX_POINT('',#641);
#208=VERTEX_POINT('',#647);
#209=VERTEX_POINT('',#648);
#210=VERTEX_POINT('',#653);
#211=VERTEX_POINT('',#657);
#212=VERTEX_POINT('',#663);
#213=VERTEX_POINT('',#667);
#214=VERTEX_POINT('',#668);
#215=VERTEX_POINT('',#673);
#216=VERTEX_POINT('',#677);
#217=VERTEX_POINT('',#681);
#218=VERTEX_POINT('',#685);
#219=VERTEX_POINT('',#689);
#220=VERTEX_POINT('',#693);
#221=EDGE_CURVE('',#183,#184,#169,.T.);
#222=EDGE_CURVE('',#184,#185,#83,.T.);
#223=EDGE_CURVE('',#185,#186,#170,.T.);
#224=EDGE_CURVE('',#186,#183,#84,.T.);
#225=EDGE_CURVE('',#184,#187,#85,.T.);
#226=EDGE_CURVE('',#188,#187,#86,.T.);
#227=EDGE_CURVE('',#188,#185,#87,.T.);
#228=EDGE_CURVE('',#189,#190,#171,.T.);
#229=EDGE_CURVE('',#190,#191,#88,.T.);
#230=EDGE_CURVE('',#191,#192,#172,.T.);
#231=EDGE_CURVE('',#192,#193,#89,.T.);
#232=EDGE_CURVE('',#193,#194,#173,.T.);
#233=EDGE_CURVE('',#194,#195,#90,.T.);
#234=EDGE_CURVE('',#195,#196,#174,.T.);
#235=EDGE_CURVE('',#196,#189,#91,.T.);
#236=EDGE_CURVE('',#197,#197,#175,.T.);
#237=EDGE_CURVE('',#198,#199,#92,.T.);
#238=EDGE_CURVE('',#199,#200,#93,.T.);
#239=EDGE_CURVE('',#200,#201,#94,.T.);
#240=EDGE_CURVE('',#201,#198,#95,.T.);
#241=EDGE_CURVE('',#202,#183,#96,.T.);
#242=EDGE_CURVE('',#202,#203,#97,.T.);
#243=EDGE_CURVE('',#203,#204,#98,.T.);
#244=EDGE_CURVE('',#187,#204,#176,.T.);
#245=EDGE_CURVE('',#205,#188,#177,.T.);
#246=EDGE_CURVE('',#204,#205,#99,.T.);
#247=EDGE_CURVE('',#206,#205,#100,.T.);
#248=EDGE_CURVE('',#206,#207,#101,.T.);
#249=EDGE_CURVE('',#207,#186,#102,.T.);
#250=EDGE_CURVE('',#203,#206,#103,.T.);
#251=EDGE_CURVE('',#208,#209,#104,.T.);
#252=EDGE_CURVE('',#201,#208,#105,.T.);
#253=EDGE_CURVE('',#200,#209,#106,.T.);
#254=EDGE_CURVE('',#209,#210,#107,.T.);
#255=EDGE_CURVE('',#199,#210,#108,.T.);
#256=EDGE_CURVE('',#210,#211,#109,.T.);
#257=EDGE_CURVE('',#198,#211,#110,.T.);
#258=EDGE_CURVE('',#211,#208,#111,.T.);
#259=EDGE_CURVE('',#197,#212,#112,.T.);
#260=EDGE_CURVE('',#212,#212,#178,.T.);
#261=EDGE_CURVE('',#213,#214,#113,.T.);
#262=EDGE_CURVE('',#214,#189,#114,.T.);
#263=EDGE_CURVE('',#213,#196,#115,.T.);
#264=EDGE_CURVE('',#215,#213,#179,.T.);
#265=EDGE_CURVE('',#215,#195,#116,.T.);
#266=EDGE_CURVE('',#216,#215,#117,.T.);
#267=EDGE_CURVE('',#216,#194,#118,.T.);
#268=EDGE_CURVE('',#217,#216,#180,.T.);
#269=EDGE_CURVE('',#217,#193,#119,.T.);
#270=EDGE_CURVE('',#218,#217,#120,.T.);
#271=EDGE_CURVE('',#218,#192,#121,.T.);
#272=EDGE_CURVE('',#219,#218,#181,.T.);
#273=EDGE_CURVE('',#219,#191,#122,.T.);
#274=EDGE_CURVE('',#220,#219,#123,.T.);
#275=EDGE_CURVE('',#220,#190,#124,.T.);
#276=EDGE_CURVE('',#214,#220,#182,.T.);
#277=EDGE_CURVE('',#207,#202,#125,.T.);
#278=ORIENTED_EDGE('',*,*,#221,.T.);
#279=ORIENTED_EDGE('',*,*,#222,.T.);
#280=ORIENTED_EDGE('',*,*,#223,.T.);
#281=ORIENTED_EDGE('',*,*,#224,.T.);
#282=ORIENTED_EDGE('',*,*,#222,.F.);
#283=ORIENTED_EDGE('',*,*,#225,.T.);
#284=ORIENTED_EDGE('',*,*,#226,.F.);
#285=ORIENTED_EDGE('',*,*,#227,.T.);
#286=ORIENTED_EDGE('',*,*,#228,.T.);
#287=ORIENTED_EDGE('',*,*,#229,.T.);
#288=ORIENTED_EDGE('',*,*,#230,.T.);
#289=ORIENTED_EDGE('',*,*,#231,.T.);
#290=ORIENTED_EDGE('',*,*,#232,.T.);
#291=ORIENTED_EDGE('',*,*,#233,.T.);
#292=ORIENTED_EDGE('',*,*,#234,.T.);
#293=ORIENTED_EDGE('',*,*,#235,.T.);
#294=ORIENTED_EDGE('',*,*,#236,.T.);
#295=ORIENTED_EDGE('',*,*,#237,.T.);
#296=ORIENTED_EDGE('',*,*,#238,.T.);
#297=ORIENTED_EDGE('',*,*,#239,.T.);
#298=ORIENTED_EDGE('',*,*,#240,.T.);
#299=ORIENTED_EDGE('',*,*,#221,.F.);
#300=ORIENTED_EDGE('',*,*,#241,.F.);
#301=ORIENTED_EDGE('',*,*,#242,.T.);
#302=ORIENTED_EDGE('',*,*,#243,.T.);
#303=ORIENTED_EDGE('',*,*,#244,.F.);
#304=ORIENTED_EDGE('',*,*,#225,.F.);
#305=ORIENTED_EDGE('',*,*,#245,.T.);
#306=ORIENTED_EDGE('',*,*,#226,.T.);
#307=ORIENTED_EDGE('',*,*,#244,.T.);
#308=ORIENTED_EDGE('',*,*,#246,.T.);
#309=ORIENTED_EDGE('',*,*,#223,.F.);
#310=ORIENTED_EDGE('',*,*,#227,.F.);
#311=ORIENTED_EDGE('',*,*,#245,.F.);
#312=ORIENTED_EDGE('',*,*,#247,.F.);
#313=ORIENTED_EDGE('',*,*,#248,.T.);
#314=ORIENTED_EDGE('',*,*,#249,.T.);
#315=ORIENTED_EDGE('',*,*,#246,.F.);
#316=ORIENTED_EDGE('',*,*,#243,.F.);
#317=ORIENTED_EDGE('',*,*,#250,.T.);
#318=ORIENTED_EDGE('',*,*,#247,.T.);
#319=ORIENTED_EDGE('',*,*,#251,.F.);
#320=ORIENTED_EDGE('',*,*,#252,.F.);
#321=ORIENTED_EDGE('',*,*,#239,.F.);
#322=ORIENTED_EDGE('',*,*,#253,.T.);
#323=ORIENTED_EDGE('',*,*,#254,.F.);
#324=ORIENTED_EDGE('',*,*,#253,.F.);
#325=ORIENTED_EDGE('',*,*,#238,.F.);
#326=ORIENTED_EDGE('',*,*,#255,.T.);
#327=ORIENTED_EDGE('',*,*,#256,.F.);
#328=ORIENTED_EDGE('',*,*,#255,.F.);
#329=ORIENTED_EDGE('',*,*,#237,.F.);
#330=ORIENTED_EDGE('',*,*,#257,.T.);
#331=ORIENTED_EDGE('',*,*,#258,.F.);
#332=ORIENTED_EDGE('',*,*,#257,.F.);
#333=ORIENTED_EDGE('',*,*,#240,.F.);
#334=ORIENTED_EDGE('',*,*,#252,.T.);
#335=ORIENTED_EDGE('',*,*,#236,.F.);
#336=ORIENTED_EDGE('',*,*,#259,.T.);
#337=ORIENTED_EDGE('',*,*,#260,.F.);
#338=ORIENTED_EDGE('',*,*,#259,.F.);
#339=ORIENTED_EDGE('',*,*,#261,.T.);
#340=ORIENTED_EDGE('',*,*,#262,.T.);
#341=ORIENTED_EDGE('',*,*,#235,.F.);
#342=ORIENTED_EDGE('',*,*,#263,.F.);
#343=ORIENTED_EDGE('',*,*,#264,.T.);
#344=ORIENTED_EDGE('',*,*,#263,.T.);
#345=ORIENTED_EDGE('',*,*,#234,.F.);
#346=ORIENTED_EDGE('',*,*,#265,.F.);
#347=ORIENTED_EDGE('',*,*,#266,.T.);
#348=ORIENTED_EDGE('',*,*,#265,.T.);
#349=ORIENTED_EDGE('',*,*,#233,.F.);
#350=ORIENTED_EDGE('',*,*,#267,.F.);
#351=ORIENTED_EDGE('',*,*,#268,.T.);
#352=ORIENTED_EDGE('',*,*,#267,.T.);
#353=ORIENTED_EDGE('',*,*,#232,.F.);
#354=ORIENTED_EDGE('',*,*,#269,.F.);
#355=ORIENTED_EDGE('',*,*,#270,.T.);
#356=ORIENTED_EDGE('',*,*,#269,.T.);
#357=ORIENTED_EDGE('',*,*,#231,.F.);
#358=ORIENTED_EDGE('',*,*,#271,.F.);
#359=ORIENTED_EDGE('',*,*,#272,.T.);
#360=ORIENTED_EDGE('',*,*,#271,.T.);
#361=ORIENTED_EDGE('',*,*,#230,.F.);
#362=ORIENTED_EDGE('',*,*,#273,.F.);
#363=ORIENTED_EDGE('',*,*,#274,.T.);
#364=ORIENTED_EDGE('',*,*,#273,.T.);
#365=ORIENTED_EDGE('',*,*,#229,.F.);
#366=ORIENTED_EDGE('',*,*,#275,.F.);
#367=ORIENTED_EDGE('',*,*,#276,.T.);
#368=ORIENTED_EDGE('',*,*,#275,.T.);
#369=ORIENTED_EDGE('',*,*,#228,.F.);
#370=ORIENTED_EDGE('',*,*,#262,.F.);
#371=ORIENTED_EDGE('',*,*,#224,.F.);
#372=ORIENTED_EDGE('',*,*,#249,.F.);
#373=ORIENTED_EDGE('',*,*,#277,.T.);
#374=ORIENTED_EDGE('',*,*,#241,.T.);
#375=ORIENTED_EDGE('',*,*,#248,.F.);
#376=ORIENTED_EDGE('',*,*,#250,.F.);
#377=ORIENTED_EDGE('',*,*,#242,.F.);
#378=ORIENTED_EDGE('',*,*,#277,.F.);
#379=ORIENTED_EDGE('',*,*,#256,.T.);
#380=ORIENTED_EDGE('',*,*,#258,.T.);
#381=ORIENTED_EDGE('',*,*,#251,.T.);
#382=ORIENTED_EDGE('',*,*,#254,.T.);
#383=ORIENTED_EDGE('',*,*,#260,.T.);
#384=ORIENTED_EDGE('',*,*,#276,.F.);
#385=ORIENTED_EDGE('',*,*,#261,.F.);
#386=ORIENTED_EDGE('',*,*,#264,.F.);
#387=ORIENTED_EDGE('',*,*,#266,.F.);
#388=ORIENTED_EDGE('',*,*,#268,.F.);
#389=ORIENTED_EDGE('',*,*,#270,.F.);
#390=ORIENTED_EDGE('',*,*,#272,.F.);
#391=ORIENTED_EDGE('',*,*,#274,.F.);
#392=CYLINDRICAL_SURFACE('',#434,2.);
#393=CYLINDRICAL_SURFACE('',#445,2.);
#394=CYLINDRICAL_SURFACE('',#453,3.50000000000001);
#395=CYLINDRICAL_SURFACE('',#456,0.999999999999996);
#396=CYLINDRICAL_SURFACE('',#459,1.00000000000001);
#397=CYLINDRICAL_SURFACE('',#462,0.999999999999996);
#398=CYLINDRICAL_SURFACE('',#465,0.999999999999999);
#399=ADVANCED_FACE('',(#35),#392,.T.);
#400=ADVANCED_FACE('',(#36,#15,#16,#17),#21,.T.);
#401=ADVANCED_FACE('',(#37),#22,.T.);
#402=ADVANCED_FACE('',(#38),#393,.T.);
#403=ADVANCED_FACE('',(#39),#23,.T.);
#404=ADVANCED_FACE('',(#40),#24,.T.);
#405=ADVANCED_FACE('',(#41),#25,.F.);
#406=ADVANCED_FACE('',(#42),#26,.F.);
#407=ADVANCED_FACE('',(#43),#27,.F.);
#408=ADVANCED_FACE('',(#44),#28,.F.);
#409=ADVANCED_FACE('',(#45),#394,.F.);
#410=ADVANCED_FACE('',(#46),#29,.T.);
#411=ADVANCED_FACE('',(#47),#395,.F.);
#412=ADVANCED_FACE('',(#48),#30,.T.);
#413=ADVANCED_FACE('',(#49),#396,.F.);
#414=ADVANCED_FACE('',(#50),#31,.T.);
#415=ADVANCED_FACE('',(#51),#397,.F.);
#416=ADVANCED_FACE('',(#52),#32,.T.);
#417=ADVANCED_FACE('',(#53),#398,.F.);
#418=ADVANCED_FACE('',(#54),#33,.T.);
#419=ADVANCED_FACE('',(#55,#18,#19,#20),#34,.F.);
#420=CLOSED_SHELL('',(#399,#400,#401,#402,#403,#404,#405,#406,#407,#408,
#409,#410,#411,#412,#413,#414,#415,#416,#417,#418,#419));
#421=DERIVED_UNIT_ELEMENT(#423,1.);
#422=DERIVED_UNIT_ELEMENT(#706,-3.);
#423=(
MASS_UNIT()
NAMED_UNIT(*)
SI_UNIT(.KILO.,.GRAM.)
);
#424=DERIVED_UNIT((#421,#422));
#425=MEASURE_REPRESENTATION_ITEM('density measure',
POSITIVE_RATIO_MEASURE(7850.),#424);
#426=PROPERTY_DEFINITION_REPRESENTATION(#431,#428);
#427=PROPERTY_DEFINITION_REPRESENTATION(#432,#429);
#428=REPRESENTATION('material name',(#430),#703);
#429=REPRESENTATION('density',(#425),#703);
#430=DESCRIPTIVE_REPRESENTATION_ITEM('Steel','Steel');
#431=PROPERTY_DEFINITION('material property','material name',#713);
#432=PROPERTY_DEFINITION('material property','density of part',#713);
#433=AXIS2_PLACEMENT_3D('',#584,#469,#470);
#434=AXIS2_PLACEMENT_3D('',#585,#471,#472);
#435=AXIS2_PLACEMENT_3D('',#588,#473,#474);
#436=AXIS2_PLACEMENT_3D('',#592,#476,#477);
#437=AXIS2_PLACEMENT_3D('',#594,#479,#480);
#438=AXIS2_PLACEMENT_3D('',#602,#484,#485);
#439=AXIS2_PLACEMENT_3D('',#606,#487,#488);
#440=AXIS2_PLACEMENT_3D('',#610,#490,#491);
#441=AXIS2_PLACEMENT_3D('',#614,#493,#494);
#442=AXIS2_PLACEMENT_3D('',#617,#496,#497);
#443=AXIS2_PLACEMENT_3D('',#626,#502,#503);
#444=AXIS2_PLACEMENT_3D('',#633,#507,#508);
#445=AXIS2_PLACEMENT_3D('',#634,#509,#510);
#446=AXIS2_PLACEMENT_3D('',#636,#511,#512);
#447=AXIS2_PLACEMENT_3D('',#638,#514,#515);
#448=AXIS2_PLACEMENT_3D('',#644,#519,#520);
#449=AXIS2_PLACEMENT_3D('',#646,#522,#523);
#450=AXIS2_PLACEMENT_3D('',#652,#527,#528);
#451=AXIS2_PLACEMENT_3D('',#656,#531,#532);
#452=AXIS2_PLACEMENT_3D('',#660,#535,#536);
#453=AXIS2_PLACEMENT_3D('',#662,#538,#539);
#454=AXIS2_PLACEMENT_3D('',#665,#541,#542);
#455=AXIS2_PLACEMENT_3D('',#666,#543,#544);
#456=AXIS2_PLACEMENT_3D('',#672,#548,#549);
#457=AXIS2_PLACEMENT_3D('',#674,#550,#551);
#458=AXIS2_PLACEMENT_3D('',#676,#553,#554);
#459=AXIS2_PLACEMENT_3D('',#680,#557,#558);
#460=AXIS2_PLACEMENT_3D('',#682,#559,#560);
#461=AXIS2_PLACEMENT_3D('',#684,#562,#563);
#462=AXIS2_PLACEMENT_3D('',#688,#566,#567);
#463=AXIS2_PLACEMENT_3D('',#690,#568,#569);
#464=AXIS2_PLACEMENT_3D('',#692,#571,#572);
#465=AXIS2_PLACEMENT_3D('',#696,#575,#576);
#466=AXIS2_PLACEMENT_3D('',#697,#577,#578);
#467=AXIS2_PLACEMENT_3D('',#698,#579,#580);
#468=AXIS2_PLACEMENT_3D('',#700,#582,#583);
#469=DIRECTION('axis',(0.,0.,1.));
#470=DIRECTION('refdir',(1.,0.,0.));
#471=DIRECTION('center_axis',(0.,1.56268647904677E-13,-1.));
#472=DIRECTION('ref_axis',(0.707106781186548,-0.707106781186548,-1.13046657025232E-13));
#473=DIRECTION('center_axis',(0.,-1.5627710765676E-13,1.));
#474=DIRECTION('ref_axis',(0.707106781186548,-0.707106781186548,-1.13046657025232E-13));
#475=DIRECTION('',(0.,-1.56268647904677E-13,1.));
#476=DIRECTION('center_axis',(0.,0.,-1.));
#477=DIRECTION('ref_axis',(0.707106781186548,-0.707106781186548,-1.13046657025232E-13));
#478=DIRECTION('',(0.,1.56268647904677E-13,-1.));
#479=DIRECTION('center_axis',(1.,0.,0.));
#480=DIRECTION('ref_axis',(0.,1.,0.));
#481=DIRECTION('',(0.,1.,1.5627710765676E-13));
#482=DIRECTION('',(0.,1.56081835414664E-13,-1.));
#483=DIRECTION('',(0.,-1.,0.));
#484=DIRECTION('center_axis',(-1.,0.,0.));
#485=DIRECTION('ref_axis',(0.,-1.,-1.77635683940025E-14));
#486=DIRECTION('',(0.,-8.13776038992375E-15,1.));
#487=DIRECTION('center_axis',(-1.,0.,0.));
#488=DIRECTION('ref_axis',(0.,-6.66133814775096E-15,1.));
#489=DIRECTION('',(0.,1.,1.46806350363658E-14));
#490=DIRECTION('center_axis',(-1.,0.,0.));
#491=DIRECTION('ref_axis',(0.,1.,0.));
#492=DIRECTION('',(0.,7.19885246514872E-15,-1.));
#493=DIRECTION('center_axis',(-1.,0.,0.));
#494=DIRECTION('ref_axis',(0.,3.33066907387548E-15,-1.));
#495=DIRECTION('',(0.,-1.,0.));
#496=DIRECTION('center_axis',(-1.,0.,0.));
#497=DIRECTION('ref_axis',(0.,1.,0.));
#498=DIRECTION('',(0.,0.,1.));
#499=DIRECTION('',(0.,1.,0.));
#500=DIRECTION('',(0.,0.,-1.));
#501=DIRECTION('',(0.,-1.,0.));
#502=DIRECTION('center_axis',(0.,1.5627710765676E-13,-1.));
#503=DIRECTION('ref_axis',(0.,1.,1.5627710765676E-13));
#504=DIRECTION('',(1.,0.,0.));
#505=DIRECTION('',(0.,1.,1.5627710765676E-13));
#506=DIRECTION('',(1.,0.,0.));
#507=DIRECTION('center_axis',(0.,-1.5627710765676E-13,1.));
#508=DIRECTION('ref_axis',(0.707106781186548,0.707106781186547,1.13046657025232E-13));
#509=DIRECTION('center_axis',(0.,-1.56081835414664E-13,1.));
#510=DIRECTION('ref_axis',(0.707106781186548,0.707106781186547,1.13046657025232E-13));
#511=DIRECTION('center_axis',(0.,0.,-1.));
#512=DIRECTION('ref_axis',(0.707106781186548,0.707106781186547,1.13046657025232E-13));
#513=DIRECTION('',(0.,-1.56081835414664E-13,1.));
#514=DIRECTION('center_axis',(0.,0.,1.));
#515=DIRECTION('ref_axis',(0.,-1.,0.));
#516=DIRECTION('',(1.,0.,0.));
#517=DIRECTION('',(0.,-1.,0.));
#518=DIRECTION('',(1.,0.,0.));
#519=DIRECTION('center_axis',(0.,1.,1.56081835414664E-13));
#520=DIRECTION('ref_axis',(0.,-1.56081835414664E-13,1.));
#521=DIRECTION('',(0.,-1.56081835414664E-13,1.));
#522=DIRECTION('center_axis',(0.,1.,0.));
#523=DIRECTION('ref_axis',(0.,0.,-1.));
#524=DIRECTION('',(0.,0.,1.));
#525=DIRECTION('',(-1.,0.,0.));
#526=DIRECTION('',(-1.,0.,0.));
#527=DIRECTION('center_axis',(0.,0.,1.));
#528=DIRECTION('ref_axis',(0.,1.,0.));
#529=DIRECTION('',(0.,-1.,0.));
#530=DIRECTION('',(-1.,0.,0.));
#531=DIRECTION('center_axis',(0.,-1.,0.));
#532=DIRECTION('ref_axis',(0.,0.,1.));
#533=DIRECTION('',(0.,0.,-1.));
#534=DIRECTION('',(-1.,0.,0.));
#535=DIRECTION('center_axis',(0.,0.,-1.));
#536=DIRECTION('ref_axis',(0.,-1.,0.));
#537=DIRECTION('',(0.,1.,0.));
#538=DIRECTION('center_axis',(-1.,0.,0.));
#539=DIRECTION('ref_axis',(0.,1.,0.));
#540=DIRECTION('',(-1.,0.,0.));
#541=DIRECTION('center_axis',(1.,0.,0.));
#542=DIRECTION('ref_axis',(0.,1.,0.));
#543=DIRECTION('center_axis',(0.,0.,1.));
#544=DIRECTION('ref_axis',(0.,-1.,0.));
#545=DIRECTION('',(0.,-1.,0.));
#546=DIRECTION('',(1.,0.,0.));
#547=DIRECTION('',(1.,0.,0.));
#548=DIRECTION('center_axis',(1.,0.,0.));
#549=DIRECTION('ref_axis',(0.,3.33066907387548E-15,-1.));
#550=DIRECTION('center_axis',(-1.,0.,0.));
#551=DIRECTION('ref_axis',(0.,3.33066907387548E-15,-1.));
#552=DIRECTION('',(1.,0.,0.));
#553=DIRECTION('center_axis',(0.,-1.,-7.19885246514872E-15));
#554=DIRECTION('ref_axis',(0.,7.19885246514872E-15,-1.));
#555=DIRECTION('',(0.,7.19885246514872E-15,-1.));
#556=DIRECTION('',(1.,0.,0.));
#557=DIRECTION('center_axis',(1.,0.,0.));
#558=DIRECTION('ref_axis',(0.,1.,0.));
#559=DIRECTION('center_axis',(-1.,0.,0.));
#560=DIRECTION('ref_axis',(0.,1.,0.));
#561=DIRECTION('',(1.,0.,0.));
#562=DIRECTION('center_axis',(0.,1.46806350363658E-14,-1.));
#563=DIRECTION('ref_axis',(0.,1.,1.46806350363658E-14));
#564=DIRECTION('',(0.,1.,1.46806350363658E-14));
#565=DIRECTION('',(1.,0.,0.));
#566=DIRECTION('center_axis',(1.,0.,0.));
#567=DIRECTION('ref_axis',(0.,-6.66133814775096E-15,1.));
#568=DIRECTION('center_axis',(-1.,0.,0.));
#569=DIRECTION('ref_axis',(0.,-6.66133814775096E-15,1.));
#570=DIRECTION('',(1.,0.,0.));
#571=DIRECTION('center_axis',(0.,1.,8.13776038992375E-15));
#572=DIRECTION('ref_axis',(0.,-8.13776038992375E-15,1.));
#573=DIRECTION('',(0.,-8.13776038992375E-15,1.));
#574=DIRECTION('',(1.,0.,0.));
#575=DIRECTION('center_axis',(1.,0.,0.));
#576=DIRECTION('ref_axis',(0.,-1.,-1.77635683940025E-14));
#577=DIRECTION('center_axis',(-1.,0.,0.));
#578=DIRECTION('ref_axis',(0.,-1.,-1.77635683940025E-14));
#579=DIRECTION('center_axis',(0.,-1.,-1.56268647904677E-13));
#580=DIRECTION('ref_axis',(0.,1.56268647904677E-13,-1.));
#581=DIRECTION('',(0.,1.56268647904677E-13,-1.));
#582=DIRECTION('center_axis',(1.,0.,0.));
#583=DIRECTION('ref_axis',(0.,1.,0.));
#584=CARTESIAN_POINT('',(0.,0.,0.));
#585=CARTESIAN_POINT('Origin',(25.9122845391222,-19.000000000023,151.31576852181));
#586=CARTESIAN_POINT('',(25.9122845391222,-21.0000000000119,79.9999999999934));
#587=CARTESIAN_POINT('',(27.9122845391222,-19.0000000000119,79.9999999999937));
#588=CARTESIAN_POINT('Origin',(25.9122845391222,-19.0000000000119,79.9999999999937));
#589=CARTESIAN_POINT('',(27.9122845391222,-19.0000000000267,175.087691362417));
#590=CARTESIAN_POINT('',(27.9122845391222,-19.000000000023,151.31576852181));
#591=CARTESIAN_POINT('',(25.9122845391222,-21.0000000000267,175.087691362417));
#592=CARTESIAN_POINT('Origin',(25.9122845391222,-19.0000000000267,175.08769136241));
#593=CARTESIAN_POINT('',(25.9122845391222,-21.000000000023,151.315768521809));
#594=CARTESIAN_POINT('Origin',(27.9122845391222,-1.93089988442807E-11,127.543845681205));
#595=CARTESIAN_POINT('',(27.9122845391222,18.9999999999881,79.9999999999997));
#596=CARTESIAN_POINT('',(27.9122845391222,-21.0000000000119,79.9999999999934));
#597=CARTESIAN_POINT('',(27.9122845391222,18.9999999999733,175.087691362417));
#598=CARTESIAN_POINT('',(27.9122845391222,18.9999999999844,103.771922840604));
#599=CARTESIAN_POINT('',(27.9122845391222,20.9999999999733,175.087691362417));
#600=CARTESIAN_POINT('',(27.9122845391222,-10.3402673581754,106.149136284127));
#601=CARTESIAN_POINT('',(27.9122845391222,-11.3402673581754,107.149136284127));
#602=CARTESIAN_POINT('Origin',(27.9122845391222,-10.3402673581754,107.149136284127));
#603=CARTESIAN_POINT('',(27.9122845391222,-11.3402673581754,114.089136284127));
#604=CARTESIAN_POINT('',(27.9122845391222,-11.3402673581754,114.089136284127));
#605=CARTESIAN_POINT('',(27.9122845391222,-10.3402673581754,115.089136284127));
#606=CARTESIAN_POINT('Origin',(27.9122845391222,-10.3402673581754,114.089136284127));
#607=CARTESIAN_POINT('',(27.9122845391222,-9.13026735817545,115.089136284127));
#608=CARTESIAN_POINT('',(27.9122845391222,-9.13026735817545,115.089136284127));
#609=CARTESIAN_POINT('',(27.9122845391222,-8.13026735817543,114.089136284127));
#610=CARTESIAN_POINT('Origin',(27.9122845391222,-9.13026735817544,114.089136284127));
#611=CARTESIAN_POINT('',(27.9122845391222,-8.13026735817539,107.149136284127));
#612=CARTESIAN_POINT('',(27.9122845391222,-8.13026735817538,107.149136284127));
#613=CARTESIAN_POINT('',(27.9122845391222,-9.13026735817538,106.149136284127));
#614=CARTESIAN_POINT('Origin',(27.9122845391222,-9.13026735817539,107.149136284127));
#615=CARTESIAN_POINT('',(27.9122845391222,-10.3402673581754,106.149136284127));
#616=CARTESIAN_POINT('',(27.9122845391222,-3.50000000000001,121.846588303719));
#617=CARTESIAN_POINT('Origin',(27.9122845391222,-1.01827648875264E-32,121.846588303719));
#618=CARTESIAN_POINT('',(27.9122845391222,-16.2115601282231,132.058162399481));
#619=CARTESIAN_POINT('',(27.9122845391222,-16.2115601282231,159.058162399481));
#620=CARTESIAN_POINT('',(27.9122845391222,-16.2115601282231,129.801004040343));
#621=CARTESIAN_POINT('',(27.9122845391222,-6.21156012822309,159.058162399481));
#622=CARTESIAN_POINT('',(27.9122845391222,-8.1057800641212,159.058162399481));
#623=CARTESIAN_POINT('',(27.9122845391222,-6.21156012822309,132.058162399481));
#624=CARTESIAN_POINT('',(27.9122845391222,-6.21156012822309,143.301004040343));
#625=CARTESIAN_POINT('',(27.9122845391222,-3.1057800641212,132.058162399481));
#626=CARTESIAN_POINT('Origin',(22.9122845391222,-21.0000000000119,79.9999999999934));
#627=CARTESIAN_POINT('',(22.9122845391222,-21.0000000000119,79.9999999999934));
#628=CARTESIAN_POINT('',(22.9122845391222,-21.0000000000119,79.9999999999934));
#629=CARTESIAN_POINT('',(22.9122845391222,20.9999999999881,80.));
#630=CARTESIAN_POINT('',(22.9122845391222,-21.0000000000119,79.9999999999934));
#631=CARTESIAN_POINT('',(25.9122845391222,20.9999999999881,80.));
#632=CARTESIAN_POINT('',(22.9122845391222,20.9999999999881,80.));
#633=CARTESIAN_POINT('Origin',(25.9122845391222,18.9999999999881,79.9999999999997));
#634=CARTESIAN_POINT('Origin',(25.9122845391222,18.9999999999844,103.771922840604));
#635=CARTESIAN_POINT('',(25.9122845391222,20.9999999999733,175.087691362417));
#636=CARTESIAN_POINT('Origin',(25.9122845391222,18.9999999999733,175.087691362416));
#637=CARTESIAN_POINT('',(25.9122845391222,20.9999999999844,103.771922840604));
#638=CARTESIAN_POINT('Origin',(22.9122845391222,20.9999999999733,175.087691362417));
#639=CARTESIAN_POINT('',(22.9122845391222,20.9999999999733,175.087691362417));
#640=CARTESIAN_POINT('',(22.9122845391222,20.9999999999733,175.087691362417));
#641=CARTESIAN_POINT('',(22.9122845391222,-21.0000000000267,175.087691362417));
#642=CARTESIAN_POINT('',(22.9122845391222,20.9999999999733,175.087691362417));
#643=CARTESIAN_POINT('',(22.9122845391222,-21.0000000000267,175.087691362417));
#644=CARTESIAN_POINT('Origin',(22.9122845391222,20.9999999999881,80.));
#645=CARTESIAN_POINT('',(22.9122845391222,20.9999999999881,80.));
#646=CARTESIAN_POINT('Origin',(27.9122845391222,-6.21156012822309,159.058162399481));
#647=CARTESIAN_POINT('',(22.9122845391222,-6.21156012822309,132.058162399481));
#648=CARTESIAN_POINT('',(22.9122845391222,-6.21156012822309,159.058162399481));
#649=CARTESIAN_POINT('',(22.9122845391222,-6.21156012822309,143.301004040343));
#650=CARTESIAN_POINT('',(27.9122845391222,-6.21156012822309,132.058162399481));
#651=CARTESIAN_POINT('',(27.9122845391222,-6.21156012822309,159.058162399481));
#652=CARTESIAN_POINT('Origin',(27.9122845391222,-16.2115601282231,159.058162399481));
#653=CARTESIAN_POINT('',(22.9122845391222,-16.2115601282231,159.058162399481));
#654=CARTESIAN_POINT('',(22.9122845391222,-8.1057800641212,159.058162399481));
#655=CARTESIAN_POINT('',(27.9122845391222,-16.2115601282231,159.058162399481));
#656=CARTESIAN_POINT('Origin',(27.9122845391222,-16.2115601282231,132.058162399481));
#657=CARTESIAN_POINT('',(22.9122845391222,-16.2115601282231,132.058162399481));
#658=CARTESIAN_POINT('',(22.9122845391222,-16.2115601282231,129.801004040343));
#659=CARTESIAN_POINT('',(27.9122845391222,-16.2115601282231,132.058162399481));
#660=CARTESIAN_POINT('Origin',(27.9122845391222,-6.21156012822309,132.058162399481));
#661=CARTESIAN_POINT('',(22.9122845391222,-3.1057800641212,132.058162399481));
#662=CARTESIAN_POINT('Origin',(27.9122845391222,-1.01827648875264E-32,121.846588303719));
#663=CARTESIAN_POINT('',(22.9122845391222,-3.50000000000001,121.846588303719));
#664=CARTESIAN_POINT('',(27.9122845391222,-3.50000000000001,121.846588303719));
#665=CARTESIAN_POINT('Origin',(22.9122845391222,-1.01827648875264E-32,121.846588303719));
#666=CARTESIAN_POINT('Origin',(22.9122845391222,-9.13026735817538,106.149136284127));
#667=CARTESIAN_POINT('',(22.9122845391222,-9.13026735817538,106.149136284127));
#668=CARTESIAN_POINT('',(22.9122845391222,-10.3402673581754,106.149136284127));
#669=CARTESIAN_POINT('',(22.9122845391222,-10.3402673581754,106.149136284127));
#670=CARTESIAN_POINT('',(22.9122845391222,-10.3402673581754,106.149136284127));
#671=CARTESIAN_POINT('',(22.9122845391222,-9.13026735817538,106.149136284127));
#672=CARTESIAN_POINT('Origin',(22.9122845391222,-9.13026735817539,107.149136284127));
#673=CARTESIAN_POINT('',(22.9122845391222,-8.13026735817539,107.149136284127));
#674=CARTESIAN_POINT('Origin',(22.9122845391222,-9.13026735817539,107.149136284127));
#675=CARTESIAN_POINT('',(22.9122845391222,-8.13026735817539,107.149136284127));
#676=CARTESIAN_POINT('Origin',(22.9122845391222,-8.13026735817543,114.089136284127));
#677=CARTESIAN_POINT('',(22.9122845391222,-8.13026735817543,114.089136284127));
#678=CARTESIAN_POINT('',(22.9122845391222,-8.13026735817538,107.149136284127));
#679=CARTESIAN_POINT('',(22.9122845391222,-8.13026735817543,114.089136284127));
#680=CARTESIAN_POINT('Origin',(22.9122845391222,-9.13026735817544,114.089136284127));
#681=CARTESIAN_POINT('',(22.9122845391222,-9.13026735817545,115.089136284127));
#682=CARTESIAN_POINT('Origin',(22.9122845391222,-9.13026735817544,114.089136284127));
#683=CARTESIAN_POINT('',(22.9122845391222,-9.13026735817545,115.089136284127));
#684=CARTESIAN_POINT('Origin',(22.9122845391222,-10.3402673581754,115.089136284127));
#685=CARTESIAN_POINT('',(22.9122845391222,-10.3402673581754,115.089136284127));
#686=CARTESIAN_POINT('',(22.9122845391222,-9.13026735817545,115.089136284127));
#687=CARTESIAN_POINT('',(22.9122845391222,-10.3402673581754,115.089136284127));
#688=CARTESIAN_POINT('Origin',(22.9122845391222,-10.3402673581754,114.089136284127));
#689=CARTESIAN_POINT('',(22.9122845391222,-11.3402673581754,114.089136284127));
#690=CARTESIAN_POINT('Origin',(22.9122845391222,-10.3402673581754,114.089136284127));
#691=CARTESIAN_POINT('',(22.9122845391222,-11.3402673581754,114.089136284127));
#692=CARTESIAN_POINT('Origin',(22.9122845391222,-11.3402673581754,107.149136284127));
#693=CARTESIAN_POINT('',(22.9122845391222,-11.3402673581754,107.149136284127));
#694=CARTESIAN_POINT('',(22.9122845391222,-11.3402673581754,114.089136284127));
#695=CARTESIAN_POINT('',(22.9122845391222,-11.3402673581754,107.149136284127));
#696=CARTESIAN_POINT('Origin',(22.9122845391222,-10.3402673581754,107.149136284127));
#697=CARTESIAN_POINT('Origin',(22.9122845391222,-10.3402673581754,107.149136284127));
#698=CARTESIAN_POINT('Origin',(22.9122845391222,-21.0000000000267,175.087691362417));
#699=CARTESIAN_POINT('',(22.9122845391222,-21.0000000000267,175.087691362417));
#700=CARTESIAN_POINT('Origin',(22.9122845391222,-1.93089988442807E-11,127.543845681205));
#701=UNCERTAINTY_MEASURE_WITH_UNIT(LENGTH_MEASURE(0.01),#705,
'DISTANCE_ACCURACY_VALUE',
'Maximum model space distance between geometric entities at asserted c
onnectivities');
#702=UNCERTAINTY_MEASURE_WITH_UNIT(LENGTH_MEASURE(0.01),#705,
'DISTANCE_ACCURACY_VALUE',
'Maximum model space distance between geometric entities at asserted c
onnectivities');
#703=(
GEOMETRIC_REPRESENTATION_CONTEXT(3)
GLOBAL_UNCERTAINTY_ASSIGNED_CONTEXT((#701))
GLOBAL_UNIT_ASSIGNED_CONTEXT((#705,#707,#708))
REPRESENTATION_CONTEXT('','3D')
);
#704=(
GEOMETRIC_REPRESENTATION_CONTEXT(3)
GLOBAL_UNCERTAINTY_ASSIGNED_CONTEXT((#702))
GLOBAL_UNIT_ASSIGNED_CONTEXT((#705,#707,#708))
REPRESENTATION_CONTEXT('','3D')
);
#705=(
LENGTH_UNIT()
NAMED_UNIT(*)
SI_UNIT(.MILLI.,.METRE.)
);
#706=(
LENGTH_UNIT()
NAMED_UNIT(*)
SI_UNIT($,.METRE.)
);
#707=(
NAMED_UNIT(*)
PLANE_ANGLE_UNIT()
SI_UNIT($,.RADIAN.)
);
#708=(
NAMED_UNIT(*)
SI_UNIT($,.STERADIAN.)
SOLID_ANGLE_UNIT()
);
#709=SHAPE_DEFINITION_REPRESENTATION(#710,#711);
#710=PRODUCT_DEFINITION_SHAPE('',$,#713);
#711=SHAPE_REPRESENTATION('',(#433),#703);
#712=PRODUCT_DEFINITION_CONTEXT('part definition',#717,'design');
#713=PRODUCT_DEFINITION('2026-09-30-12-29-46-749','Component1case',#714,
#712);
#714=PRODUCT_DEFINITION_FORMATION('',$,#719);
#715=PRODUCT_RELATED_PRODUCT_CATEGORY('Component1case','Component1case',
(#719));
#716=APPLICATION_PROTOCOL_DEFINITION('international standard',
'automotive_design',2009,#717);
#717=APPLICATION_CONTEXT(
'Core Data for Automotive Mechanical Design Process');
#718=PRODUCT_CONTEXT('part definition',#717,'mechanical');
#719=PRODUCT('2026-09-30-12-29-46-749','Component1case',$,(#718));
#720=PRESENTATION_STYLE_ASSIGNMENT((#721));
#721=SURFACE_STYLE_USAGE(.BOTH.,#722);
#722=SURFACE_SIDE_STYLE('',(#723));
#723=SURFACE_STYLE_FILL_AREA(#724);
#724=FILL_AREA_STYLE('Steel - Satin',(#725));
#725=FILL_AREA_STYLE_COLOUR('Steel - Satin',#726);
#726=COLOUR_RGB('Steel - Satin',0.627450980392157,0.627450980392157,0.627450980392157);
ENDSEC;
END-ISO-10303-21;
